<?xml version="1.0" encoding="utf-8"?>
<!-- Generator: Adobe Illustrator 24.3.0, SVG Export Plug-In . SVG Version: 6.00 Build 0)  -->
<svg version="1.1" id="Calque_1" xmlns="http://www.w3.org/2000/svg" xmlns:xlink="http://www.w3.org/1999/xlink" x="0px" y="0px"
	 viewBox="0 0 200 200" style="enable-background:new 0 0 200 200;" xml:space="preserve">
<style type="text/css">
	.st0{font-family:'Arial-Black';}
	.st1{font-size:59.1289px;}
	.st2{letter-spacing:-1.99;}
	.st3{fill:#7FFF00;}
	.st4{fill-rule:evenodd;clip-rule:evenodd;fill:#DEB989;}
</style>
<text transform="matrix(1.0042 0 0 1 63.726 139.1378)"><tspan x="0" y="0" class="st0 st1 st2">FT</tspan><tspan x="76.35" y="0" class="st0 st1 st2">B</tspan></text>
<path class="st3" d="M61.64,138.92l-0.17-42.45L48.22,91.8l-11.59,12.64l4.92,20.4l7.82,2.76l-0.44,6.84L61.64,138.92z
	 M41.37,115.61l9.54-11.88L50,118.66L41.37,115.61z"/>
<path class="st4" d="M119.67,70.46l11.39,1.12l35.36,24.1h10.22l-42.89-32.4c-0.69-0.23-1.42-0.16-2.04,0.16l-17.83-13
	c0.42-1.31,2.05-4.07-0.18-4.2l-18.47-1.05c-0.31-0.02-0.59-0.01-0.87,0.12L60.93,60.06c-0.67,0.3-1.49,1.02-1.82,1.94L24.16,79.57
	c-0.26,0.13-0.45,0.3-0.62,0.54l-0.33,0.49c-0.16,0.24-0.25,0.48-0.28,0.78l-1.29,12.16c-0.72,0.83-1.2,1.9-1.31,3.08l-1.04,0.59
	c-0.48,0.15-0.78,0.59-0.77,1.1l0.13,3.87c-7.48,9.54-7.29,18.5,3.74,25.2l28.42,14.12l0.07-2.51l-9.15-8.69
	c-0.17-0.16-0.17-0.38-0.24-0.6l-2.69-7.95l-5.1-23.26c-0.18-0.8-0.71-1.47-1.51-1.51l69.95-31.27l42.57,29.97h11.71L119.67,70.46z
	 M42.75,81.71l-4.1,0.35l-13.17-2.28l2.49-0.01L59.92,64.2c0.22,0.32,1.75,1.37,2.92,0.89l10.25-4.26l7.26-4.29L42.75,81.71z"/>
</svg>
